<svg width="96" height="96" viewBox="0 0 96 96" fill="none" xmlns="http://www.w3.org/2000/svg">
<g clip-path="url(#clip0_326_20)">
<path d="M40.32 43.44C40.52 42.12 40.96 40.96 41.52 39.96C42.08 38.96 42.88 38.12 43.88 37.48C44.84 36.88 46.04 36.6 47.52 36.56C48.44 36.6 49.28 36.76 50.04 37.08C50.84 37.44 51.56 37.92 52.12 38.52C52.68 39.12 53.12 39.84 53.48 40.64C53.84 41.44 54 42.32 54.04 43.2H61.2C61.12 41.32 60.76 39.6 60.08 38.04C59.4 36.48 58.48 35.12 57.28 34C56.08 32.88 54.64 32 52.96 31.36C51.28 30.72 49.44 30.44 47.4 30.44C44.8 30.44 42.52 30.88 40.6 31.8C38.68 32.72 37.08 33.92 35.8 35.48C34.52 37.04 33.56 38.84 32.96 40.92C32.36 43 32 45.16 32 47.48V48.56C32 50.88 32.32 53.04 32.92 55.12C33.52 57.2 34.48 59 35.76 60.52C37.04 62.04 38.64 63.28 40.56 64.16C42.48 65.04 44.76 65.52 47.36 65.52C49.24 65.52 51 65.2 52.64 64.6C54.28 64 55.72 63.16 56.96 62.08C58.2 61 59.2 59.76 59.92 58.32C60.64 56.88 61.08 55.36 61.12 53.72H53.96C53.92 54.56 53.72 55.32 53.36 56.04C53 56.76 52.52 57.36 51.92 57.88C51.32 58.4 50.64 58.8 49.84 59.08C49.08 59.36 48.28 59.44 47.44 59.48C46 59.44 44.8 59.16 43.88 58.56C42.88 57.92 42.08 57.08 41.52 56.08C40.96 55.08 40.52 53.88 40.32 52.56C40.12 51.24 40 49.88 40 48.56V47.48C40 46.08 40.12 44.76 40.32 43.44ZM48 8C25.92 8 8 25.92 8 48C8 70.08 25.92 88 48 88C70.08 88 88 70.08 88 48C88 25.92 70.08 8 48 8ZM48 80C30.36 80 16 65.64 16 48C16 30.36 30.36 16 48 16C65.64 16 80 30.36 80 48C80 65.64 65.64 80 48 80Z" fill="black"/>
</g>
<defs>
<clipPath id="clip0_326_20">
<rect width="96" height="96" fill="white"/>
</clipPath>
</defs>
</svg>
