<svg width="124" height="126" viewBox="0 0 124 126" fill="none" xmlns="http://www.w3.org/2000/svg">
<path d="M110.874 62.8092C110.874 89.5088 89.2295 111.153 62.5299 111.153C35.8303 111.153 14.186 89.5088 14.186 62.8092C14.186 36.1096 35.8303 14.4653 62.5299 14.4653C89.2295 14.4653 110.874 36.1096 110.874 62.8092Z" fill="white"/>
<path d="M104.031 71.709L115.296 75.5063L112.999 82.3216L111.209 81.7185L112.707 77.2761L109.644 76.2437L108.515 79.5944L106.741 78.9965L107.87 75.6457L103.231 74.0818L104.031 71.709Z" fill="black"/>
<path d="M99.2565 83.9902L100.729 81.9653L110.343 88.9584C110.28 89.0447 110.219 89.1288 110.16 89.2107C110.097 89.297 110.036 89.3811 109.976 89.463C109.913 89.5493 109.85 89.6356 109.788 89.7218C109.549 90.0496 109.289 90.4438 109.007 90.9046C108.724 91.3653 108.362 91.8997 107.919 92.5078C107.593 92.9564 107.23 93.3516 106.829 93.6935C106.433 94.0385 106.006 94.2912 105.546 94.4515C105.088 94.6193 104.602 94.6616 104.088 94.5784C103.575 94.4952 103.04 94.2513 102.484 93.8465C101.859 93.3916 101.414 92.9101 101.151 92.4019C100.892 91.8968 100.782 91.3719 100.822 90.8273C100.863 90.2901 101.027 89.7431 101.313 89.1863C101.413 88.995 101.514 88.8015 101.617 88.6059C101.724 88.4133 101.874 88.1663 102.067 87.8648C102.264 87.5664 102.548 87.1628 102.918 86.6538L99.2565 83.9902ZM104.341 87.6892C104.263 87.7703 104.159 87.8897 104.031 88.0473C103.904 88.2049 103.779 88.3679 103.656 88.5361C103.531 88.7086 103.43 88.8466 103.355 88.9501C102.957 89.4978 102.812 90.019 102.92 90.5134C103.03 91.0153 103.346 91.4561 103.868 91.8357C104.161 92.0491 104.459 92.1871 104.763 92.2499C105.068 92.3201 105.378 92.275 105.693 92.1147C106.011 91.9575 106.337 91.6503 106.67 91.1931C106.817 90.9904 106.955 90.7777 107.084 90.555C107.218 90.3354 107.328 90.1253 107.414 89.9245L104.341 87.6892ZM96.8376 87.3155C96.9517 87.3128 97.0697 87.3228 97.1917 87.3456C97.3148 87.3758 97.5144 87.4187 97.7904 87.4744C98.1767 87.5509 98.5803 87.6533 99.0015 87.7816C99.4194 87.9141 99.827 88.0293 100.224 88.1269C100.621 88.2246 100.981 88.2652 101.303 88.2488C101.625 88.2324 101.879 88.114 102.066 87.8936L102.098 88.7876L101.265 90.1104C100.978 90.2778 100.636 90.3585 100.238 90.3526C99.8407 90.3541 99.4155 90.3086 98.9618 90.216C98.505 90.1277 98.0406 90.0273 97.5685 89.9147C97.0932 89.8065 96.636 89.7278 96.1969 89.6787C96.029 89.6556 95.8634 89.634 95.6999 89.614C95.5332 89.5983 95.3681 89.5804 95.2046 89.5604L96.8376 87.3155Z" fill="black"/>
<path d="M88.1171 96.2671C89.0545 95.6156 90.0054 95.2726 90.9698 95.2379C91.9372 95.2077 92.8559 95.4601 93.726 95.995C94.5991 96.5343 95.3703 97.3244 96.0396 98.3653C96.7785 99.5201 97.1845 100.599 97.2576 101.602C97.3337 102.609 97.1398 103.524 96.6759 104.347C96.2119 105.17 95.5423 105.886 94.667 106.496C93.7696 107.121 92.8527 107.448 91.9164 107.476C90.9786 107.512 90.0798 107.266 89.22 106.737C88.3588 106.215 87.5943 105.43 86.9265 104.382C86.1876 103.227 85.7668 102.146 85.6641 101.137C85.5643 100.132 85.7308 99.2197 86.1637 98.3984C86.5995 97.5816 87.2507 96.8712 88.1171 96.2671ZM89.0988 97.8241C88.3581 98.3186 87.9643 99.0015 87.9175 99.8728C87.8708 100.744 88.2605 101.798 89.0867 103.036C89.5191 103.684 89.9935 104.207 90.51 104.606C91.0221 105.008 91.5481 105.244 92.088 105.313C92.6309 105.386 93.1597 105.251 93.6742 104.908C94.1355 104.6 94.4821 104.202 94.714 103.714C94.9415 103.228 94.9988 102.651 94.886 101.983C94.7731 101.314 94.4324 100.554 93.8638 99.7025C93.4285 99.0504 92.9437 98.5212 92.4095 98.1148C91.8752 97.7083 91.3233 97.4676 90.7538 97.3925C90.1872 97.3219 89.6355 97.4657 89.0988 97.8241Z" fill="black"/>
<path d="M78.9394 102.385L81.478 113.998L79.2115 114.494L73.3566 108.575L71.1793 105.882L71.7186 105.764L72.9227 109.587L74.233 115.582L71.9978 116.071L69.4592 104.457L71.882 103.927L77.4954 109.677L79.9899 112.735L79.3334 112.878L78.0028 108.739L76.7198 102.87L78.9394 102.385Z" fill="black"/>
<path d="M60.7029 105.041L59.5529 114.943L62.9143 115.333L62.6927 117.24L53.4668 116.169L53.6883 114.262L57.0497 114.652L58.1997 104.751L60.7029 105.041Z" fill="black"/>
<path d="M51.0653 103.768L46.3935 114.7L39.7213 111.848L40.4632 110.112L44.8403 111.983L46.0129 109.239L42.6952 107.821L43.4215 106.122L46.7392 107.539L48.0125 104.56L43.172 102.491L43.9297 100.719L51.0653 103.768Z" fill="black"/>
<path d="M40.0307 99.2566L32.0951 108.108L30.3676 106.559L31.7438 98.3491L32.6549 95.0078L33.0659 95.3763L30.6692 98.589L26.5732 103.158L24.8696 101.63L32.8052 92.7789L34.6518 94.4343L33.2709 102.35L32.2495 106.162L31.7491 105.714L34.3284 102.213L38.339 97.7399L40.0307 99.2566Z" fill="black"/>
<path d="M28.3666 88.4721L17.8326 93.9819C17.7782 93.878 17.725 93.7764 17.6731 93.6771C17.6187 93.5731 17.5656 93.4715 17.5137 93.3723C17.4618 93.2731 17.4099 93.1738 17.358 93.0746C17.2541 92.8761 17.1137 92.6305 16.9366 92.338C16.7595 92.0454 16.5712 91.7316 16.3719 91.3965C16.1725 91.0614 15.9888 90.7331 15.8207 90.4118C14.9036 88.6585 14.6754 87.1347 15.136 85.8405C15.5966 84.5463 16.6327 83.4777 18.2442 82.6348C19.4446 82.0069 20.5801 81.6808 21.6508 81.6565C22.7167 81.6346 23.6782 81.9021 24.5353 82.459C25.3898 83.0111 26.1004 83.8402 26.6669 84.9463C26.8947 85.4049 27.112 85.8721 27.3187 86.3478C27.5254 86.8235 27.7313 87.2575 27.9365 87.6498C27.9835 87.7396 28.0317 87.8317 28.0811 87.9262C28.1281 88.016 28.1763 88.1082 28.2257 88.2027C28.2727 88.2925 28.3196 88.3823 28.3666 88.4721ZM25.5506 87.1101C25.504 86.9058 25.4221 86.6687 25.305 86.3989C25.188 86.1291 25.0604 85.8678 24.9222 85.6151C24.6282 85.0647 24.2402 84.6507 23.758 84.3733C23.2758 84.0958 22.6977 83.9859 22.0236 84.0435C21.3424 84.0989 20.5622 84.3565 19.6832 84.8163C18.7664 85.2958 18.0943 85.7888 17.667 86.2952C17.2397 86.8016 17.0241 87.3387 17.0202 87.9065C17.0115 88.4768 17.1827 89.0975 17.5337 89.7686C17.6474 89.986 17.7718 90.2008 17.9069 90.413C18.042 90.6252 18.1608 90.7948 18.2633 90.9218L25.5506 87.1101Z" fill="black"/>
<path d="M19.846 60.8756L8.2132 58.4257C8.23738 58.3109 8.26101 58.1987 8.28409 58.0891C8.30827 57.9743 8.3319 57.862 8.35498 57.7525C8.37806 57.6429 8.40115 57.5333 8.42423 57.4237C8.47039 57.2045 8.5182 56.9257 8.56767 56.5873C8.61714 56.2489 8.67155 55.887 8.73091 55.5016C8.79027 55.1162 8.85731 54.7461 8.93205 54.3912C9.33982 52.455 10.1331 51.1341 11.3118 50.4286C12.4905 49.723 13.9696 49.5576 15.7493 49.9324C17.0748 50.2116 18.1584 50.6823 19 51.3446C19.8364 52.0059 20.408 52.8239 20.7151 53.7988C21.0232 54.7684 21.044 55.8601 20.7775 57.0739C20.6615 57.5727 20.532 58.0714 20.3888 58.5699C20.2457 59.0685 20.1285 59.5343 20.0373 59.9675C20.0164 60.0666 19.995 60.1684 19.973 60.2728C19.9521 60.372 19.9307 60.4737 19.9087 60.5781C19.8878 60.6773 19.8669 60.7764 19.846 60.8756ZM18.5397 58.0334C18.6337 57.846 18.7213 57.611 18.8026 57.3284C18.884 57.0458 18.9517 56.763 19.0058 56.4801C19.1292 55.8684 19.0931 55.3021 18.8976 54.7813C18.702 54.2605 18.3259 53.8079 17.7691 53.4236C17.2083 53.033 16.4425 52.7354 15.4718 52.531C14.4593 52.3178 13.6272 52.2706 12.9754 52.3895C12.3235 52.5084 11.8155 52.7856 11.4512 53.2213C11.0818 53.6558 10.819 54.2436 10.6629 54.9847C10.6124 55.2247 10.5717 55.4696 10.5409 55.7193C10.5101 55.969 10.4939 56.1754 10.4922 56.3385L18.5397 58.0334Z" fill="black"/>
<path d="M23.1736 46.6593L12.8719 40.7263L16.4933 34.4385L18.1293 35.3808L15.7537 39.5056L18.3395 40.9949L20.1402 37.8683L21.7416 38.7906L19.9409 41.9171L22.7485 43.5342L25.3757 38.9726L27.0464 39.9348L23.1736 46.6593Z" fill="black"/>
<path d="M31.4864 34.1862L20.1484 28.4192L22.0993 26.6051L28.3379 30.0131L30.2252 31.1969L29.1816 29.2287L26.1476 22.8408L28.0868 21.0376L33.0623 32.7208L31.4864 34.1862Z" fill="black"/>
<path d="M38.9826 27.3689L33.7875 16.6762L40.3139 13.5052L41.139 15.2034L36.8576 17.2836L38.1616 19.9676L41.4069 18.3908L42.2145 20.053L38.9692 21.6298L40.3851 24.544L45.1199 22.2436L45.9624 23.9777L38.9826 27.3689Z" fill="black"/>
<path d="M50.1726 22.1857L48.0794 10.4834L50.5207 10.0467L52.2603 19.7724L56.4892 19.016L56.8427 20.9926L50.1726 22.1857Z" fill="black"/>
<path d="M65.4973 20.7819C64.3639 20.6452 63.4256 20.2692 62.6822 19.6539C61.9395 19.0333 61.421 18.2339 61.1267 17.2559C60.8332 16.2725 60.7825 15.1696 60.9746 13.9471C61.1905 12.5932 61.6045 11.5175 62.2167 10.7198C62.8296 9.91679 63.5828 9.36225 64.4763 9.05616C65.3699 8.75008 66.3464 8.66019 67.4057 8.78651C68.4915 8.91652 69.3937 9.28207 70.1121 9.88315C70.8366 10.4797 71.3441 11.2614 71.6346 12.2281C71.9311 13.1903 71.9803 14.285 71.7821 15.512C71.5662 16.8659 71.1613 17.9537 70.5673 18.7754C69.9741 19.5919 69.2428 20.163 68.3734 20.4886C67.5048 20.809 66.5461 20.9067 65.4973 20.7819ZM65.7992 18.9662C66.6813 19.0893 67.4294 18.841 68.0437 18.2213C68.6579 17.6016 69.0679 16.5549 69.2735 15.0811C69.3812 14.3099 69.3748 13.6036 69.2543 12.9621C69.1391 12.3214 68.9028 11.7957 68.5455 11.385C68.1889 10.9691 67.7042 10.7183 67.0915 10.6328C66.5422 10.5561 66.0186 10.6231 65.5207 10.8336C65.0281 11.0449 64.6017 11.4377 64.2415 12.0121C63.8813 12.5865 63.6304 13.3807 63.4889 14.3949C63.3805 15.1714 63.3907 15.889 63.5196 16.5478C63.6484 17.2066 63.9006 17.7534 64.2761 18.1881C64.6523 18.6176 65.16 18.877 65.7992 18.9662Z" fill="black"/>
<path d="M76.3629 22.4588L81.8728 11.9247L82.7731 12.3956C83.2362 12.6379 83.7069 12.86 84.1851 13.062C84.6633 13.2639 85.1528 13.4959 85.6538 13.7579C86.4666 14.1831 87.1007 14.6682 87.5559 15.2133C88.0136 15.7536 88.26 16.37 88.295 17.0625C88.3348 17.7574 88.1285 18.5373 87.6762 19.4021C87.0458 20.6072 86.1961 21.3515 85.127 21.6349C84.0626 21.9208 82.8475 21.7066 81.4817 20.9922C81.1839 20.8364 80.9418 20.7068 80.7552 20.6032C80.5734 20.502 80.421 20.4194 80.2982 20.3551L78.5888 23.623L76.3629 22.4588ZM81.1658 18.6963C81.333 18.8139 81.5087 18.9268 81.6928 19.0351C81.8816 19.1459 82.0776 19.2545 82.2808 19.3608C82.6589 19.5585 83.0373 19.6752 83.4159 19.7107C83.7993 19.7487 84.1659 19.6576 84.5159 19.4374C84.8705 19.2196 85.1974 18.8248 85.4965 18.253C85.8475 17.5819 85.9408 16.9777 85.7765 16.4403C85.6122 15.903 85.1718 15.4619 84.4553 15.1173C84.2732 15.0281 84.0792 14.9386 83.8733 14.849C83.6674 14.7593 83.4731 14.6878 83.2904 14.6344L81.1658 18.6963Z" fill="black"/>
<path d="M88.2124 28.9027L96.5879 20.4662L101.737 25.5783L100.407 26.9181L97.0291 23.5645L94.9268 25.6822L97.4873 28.2242L96.1853 29.5356L93.6248 26.9937L91.3421 29.293L95.0778 33.0017L93.7195 34.3699L88.2124 28.9027Z" fill="black"/>
<path d="M98.008 39.5922L96.8639 37.3649L107.438 31.9332C107.487 32.028 107.535 32.1206 107.581 32.2107C107.63 32.3056 107.677 32.3981 107.724 32.4882C107.772 32.5831 107.821 32.678 107.87 32.7729C108.055 33.1334 108.29 33.5435 108.574 34.0032C108.858 34.4628 109.172 35.0271 109.515 35.696C109.769 36.1894 109.958 36.6918 110.083 37.2033C110.212 37.7124 110.245 38.2081 110.181 38.6907C110.124 39.1755 109.943 39.6283 109.638 40.049C109.332 40.4698 108.873 40.8373 108.261 41.1517C107.573 41.505 106.943 41.6848 106.371 41.691C105.803 41.6948 105.285 41.5561 104.817 41.275C104.356 40.9961 103.942 40.6035 103.574 40.0971C103.448 39.9219 103.32 39.7444 103.192 39.5645C103.068 39.3822 102.915 39.137 102.733 38.8289C102.556 38.5183 102.323 38.0832 102.036 37.5234L98.008 39.5922ZM103.601 36.7192C103.638 36.8261 103.698 36.9722 103.781 37.1573C103.864 37.3425 103.953 37.5276 104.049 37.7126C104.146 37.9023 104.224 38.0541 104.282 38.168C104.592 38.7705 104.992 39.1347 105.482 39.2605C105.98 39.3887 106.516 39.3054 107.09 39.0105C107.412 38.8448 107.67 38.6404 107.863 38.3974C108.063 38.1567 108.162 37.8599 108.161 37.5069C108.164 37.1514 108.037 36.7223 107.778 36.2194C107.664 35.9964 107.536 35.7772 107.396 35.5616C107.26 35.3437 107.122 35.1508 106.981 34.9829L103.601 36.7192ZM99.8868 43.2499C99.9357 43.1468 99.9978 43.046 100.073 42.9473C100.156 42.851 100.284 42.6922 100.458 42.4709C100.7 42.1605 100.974 41.8463 101.278 41.5281C101.584 41.2147 101.871 40.9027 102.137 40.5921C102.403 40.2815 102.601 39.9788 102.732 39.684C102.862 39.3892 102.871 39.1088 102.758 38.8429L103.571 39.2169L104.376 40.557C104.397 40.8884 104.315 41.2304 104.13 41.583C103.953 41.9379 103.72 42.2971 103.433 42.6604C103.149 43.0284 102.85 43.3978 102.536 43.7685C102.226 44.144 101.949 44.5167 101.708 44.8867C101.612 45.0261 101.518 45.1643 101.426 45.3012C101.337 45.4429 101.247 45.5822 101.155 45.7192L99.8868 43.2499Z" fill="black"/>
<circle cx="61.167" cy="61.6396" r="31.833" fill="white" stroke="black" stroke-width="2"/>
<path d="M51.2776 68.8435L61.6589 77.5741L71.5945 68.8435" stroke="black" stroke-width="4" stroke-miterlimit="10" stroke-linecap="round"/>
<path d="M61.6587 77.5742V45.4209" stroke="black" stroke-width="4" stroke-miterlimit="10" stroke-linecap="round"/>
</svg>
