<svg width="88" height="88" viewBox="0 0 88 88" fill="none" xmlns="http://www.w3.org/2000/svg">
<path d="M20.2 14.36L18.64 12.8C17.08 11.24 14.56 11.28 13.04 12.8L13 12.84C11.44 14.4 11.44 16.92 13 18.44L14.56 20C16.12 21.56 18.6 21.56 20.16 20L20.2 19.96C21.76 18.44 21.76 15.88 20.2 14.36ZM8.04 39.8H3.96C1.76 39.8 0 41.56 0 43.76V43.8C0 46 1.76 47.76 3.96 47.76H8C10.24 47.8 12 46.04 12 43.84V43.8C12 41.56 10.24 39.8 8.04 39.8ZM44.04 0H44C41.76 0 40 1.76 40 3.96V7.8C40 10 41.76 11.76 43.96 11.76H44C46.24 11.8 48 10.04 48 7.84V3.96C48 1.76 46.24 0 44.04 0ZM75 12.84C73.44 11.28 70.92 11.28 69.36 12.8L67.8 14.36C66.24 15.92 66.24 18.44 67.8 19.96L67.84 20C69.4 21.56 71.92 21.56 73.44 20L75 18.44C76.56 16.88 76.56 14.4 75 12.84ZM67.76 73.24L69.32 74.8C70.88 76.36 73.4 76.36 74.96 74.8C76.52 73.24 76.52 70.72 74.96 69.16L73.4 67.6C71.84 66.04 69.32 66.08 67.8 67.6C66.2 69.2 66.2 71.68 67.76 73.24ZM76 43.76V43.8C76 46 77.76 47.76 79.96 47.76H84C86.2 47.76 87.96 46 87.96 43.8V43.76C87.96 41.56 86.2 39.8 84 39.8H79.96C77.76 39.8 76 41.56 76 43.76ZM44 19.8C30.76 19.8 20 30.56 20 43.8C20 57.04 30.76 67.8 44 67.8C57.24 67.8 68 57.04 68 43.8C68 30.56 57.24 19.8 44 19.8ZM43.96 87.6H44C46.2 87.6 47.96 85.84 47.96 83.64V79.8C47.96 77.6 46.2 75.84 44 75.84H43.96C41.76 75.84 40 77.6 40 79.8V83.64C40 85.84 41.76 87.6 43.96 87.6ZM13 74.76C14.56 76.32 17.08 76.32 18.64 74.76L20.2 73.2C21.76 71.64 21.72 69.12 20.2 67.6L20.16 67.56C18.6 66 16.08 66 14.52 67.56L12.96 69.12C11.44 70.72 11.44 73.2 13 74.76Z" fill="black"/>
</svg>
